<?xml version="1.0" encoding="utf-8"?>
<!-- Generator: Adobe Illustrator 16.0.0, SVG Export Plug-In . SVG Version: 6.00 Build 0)  -->
<!DOCTYPE svg PUBLIC "-//W3C//DTD SVG 1.1//EN" "http://www.w3.org/Graphics/SVG/1.1/DTD/svg11.dtd">
<svg version="1.1" id="Layer_6" xmlns="http://www.w3.org/2000/svg" xmlns:xlink="http://www.w3.org/1999/xlink" x="0px" y="0px"
	 width="113.05px" height="97.396px" viewBox="0 0 113.05 97.396" enable-background="new 0 0 113.05 97.396" xml:space="preserve">
<g>
	<g>
		<path fill="#1D1D1D" d="M34.661,2.188c0-0.91,0.397-2.034,0.285-2.18c-0.112-0.146-1.674,1.504-1.674,3.248
			c0,2.654,2.151,4.805,4.805,4.805c1.744,0,3.158-1.433,3.243-1.62c0.085-0.188-0.95,0.335-1.86,0.335
			C36.805,6.777,34.661,4.842,34.661,2.188z"/>
		<path fill="#1D1D1D" d="M27.574,32.403h-6.971L7.973,13.146c-0.742-1.127-1.254-1.976-1.54-2.544H6.349
			c0.113,1.083,0.17,2.736,0.17,4.958v16.843H0V1.753h7.439l12.16,18.66c0.558,0.841,1.07,1.674,1.539,2.501h0.086
			c-0.113-0.712-0.172-2.115-0.172-4.211V1.753h6.521V32.403z"/>
		<rect x="33.92" y="10.516" fill="#1D1D1D" width="6.755" height="21.888"/>
		<path fill="#1D1D1D" d="M67.82,29.902c0,4.063-1.175,7.208-3.526,9.437c-2.352,2.231-5.757,3.347-10.217,3.347
			c-2.95,0-5.287-0.422-7.011-1.261v-5.687c2.252,1.311,4.523,1.966,6.818,1.966c2.281,0,4.047-0.601,5.301-1.805
			s1.882-2.841,1.882-4.906v-1.73h-0.086c-1.539,2.451-3.812,3.676-6.818,3.676c-2.793,0-5.009-0.984-6.647-2.95
			c-1.64-1.966-2.458-4.603-2.458-7.908c0-3.705,0.911-6.648,2.734-8.827c1.825-2.182,4.227-3.27,7.203-3.27
			c2.667,0,4.66,1.024,5.986,3.076h0.086v-2.544h6.753V29.902z M61.151,21.887v-1.729c0-1.384-0.408-2.563-1.229-3.537
			c-0.818-0.978-1.885-1.465-3.195-1.465c-1.496,0-2.671,0.585-3.527,1.753c-0.855,1.167-1.281,2.813-1.281,4.938
			c0,1.823,0.405,3.266,1.218,4.326c0.812,1.063,1.925,1.595,3.335,1.595c1.396,0,2.525-0.538,3.388-1.614
			C60.721,25.077,61.151,23.655,61.151,21.887z"/>
		<path fill="#1D1D1D" d="M94.476,32.403h-6.734V19.964c0-3.206-1.168-4.809-3.506-4.809c-1.196,0-2.165,0.449-2.906,1.347
			s-1.111,2.038-1.111,3.419v12.482h-6.754V0h6.754v13.766h0.086c1.653-2.521,3.898-3.782,6.732-3.782
			c4.959,0,7.439,2.99,7.439,8.977V32.403z"/>
		<path fill="#1D1D1D" d="M113.05,32.146c-0.998,0.528-2.501,0.792-4.51,0.792c-4.76,0-7.14-2.472-7.14-7.417V15.497h-3.549v-4.981
			h3.549V5.793l6.731-1.923v6.646h4.918v4.981h-4.918v8.848c0,2.281,0.907,3.422,2.717,3.422c0.712,0,1.446-0.207,2.201-0.621
			V32.146z"/>
	</g>
	<g>
		<g>
			<g>
				<polygon fill="#1D1D1D" points="1.884,97.396 2.009,97.396 2.009,70.658 1.598,70.658 				"/>
				<path fill="#1D1D1D" d="M6.009,70.35v0.309v26.738h2.756h29.744v-27.25L21.577,53.992L6.009,70.35z M33.162,86.732
					c-0.229,0.506-4.04,4.368-8.741,4.368c-7.154,0-12.953-5.8-12.953-12.953c0-4.701,4.212-9.148,4.515-8.757
					c0.302,0.393-0.768,3.423-0.768,5.876c0,7.154,5.78,12.37,12.934,12.37C30.601,87.637,33.391,86.227,33.162,86.732z"/>
				<polygon fill="#1D1D1D" points="73.813,64.396 54.946,46.397 19.771,49.318 0,70.693 0.279,70.658 0.192,70.658 20.093,49.604 
					22.358,49.377 44.009,69.658 42.509,69.961 42.509,96.212 71.003,86.416 71.003,64.979 71.017,64.979 71.003,64.966 				"/>
			</g>
		</g>
		<g>
			<path fill="#1D1D1D" d="M88.17,66.746v5.344h-2.564v19.965h2.564v5.342H76.137v-5.342h2.564V72.09h-2.564v-5.344H88.17z"/>
			<path fill="#1D1D1D" d="M113.05,97.396h-6.731v-12.16c0-3.393-1.214-5.088-3.635-5.088c-1.168,0-2.132,0.449-2.887,1.347
				s-1.132,2.038-1.132,3.419v12.482h-6.754V75.509h6.754v3.463h0.084c1.612-2.664,3.955-3.995,7.034-3.995
				c4.845,0,7.267,3.006,7.267,9.02V97.396z"/>
		</g>
	</g>
</g>
</svg>
