<?xml version="1.0" encoding="utf-8"?>
<!-- Generator: Adobe Illustrator 16.0.0, SVG Export Plug-In . SVG Version: 6.00 Build 0)  -->
<!DOCTYPE svg PUBLIC "-//W3C//DTD SVG 1.1//EN" "http://www.w3.org/Graphics/SVG/1.1/DTD/svg11.dtd">
<svg version="1.1" id="Layer_6_copy_2" xmlns="http://www.w3.org/2000/svg" xmlns:xlink="http://www.w3.org/1999/xlink" x="0px"
	 y="0px" width="234.525px" height="61.281px" viewBox="0 0 234.525 61.281" enable-background="new 0 0 234.525 61.281"
	 xml:space="preserve">
<g>
	<g>
		<path fill="#1D1D1D" d="M34.66,20.784c0-0.91,0.397-2.034,0.285-2.18c-0.111-0.146-1.674,1.504-1.674,3.248
			c0,2.654,2.15,4.805,4.805,4.805c1.744,0,3.158-1.433,3.242-1.62c0.085-0.188-0.95,0.335-1.859,0.335
			C36.805,25.373,34.66,23.438,34.66,20.784z"/>
		<path fill="#1D1D1D" d="M27.574,50.999h-6.971L7.973,31.742c-0.742-1.127-1.254-1.976-1.54-2.544H6.349
			c0.113,1.083,0.17,2.736,0.17,4.958v16.843H0v-30.65h7.439l12.16,18.66c0.558,0.841,1.07,1.674,1.539,2.501h0.086
			c-0.113-0.712-0.172-2.115-0.172-4.211v-16.95h6.521V50.999z"/>
		<rect x="33.92" y="29.111" fill="#1D1D1D" width="6.755" height="21.888"/>
		<path fill="#1D1D1D" d="M67.82,48.498c0,4.063-1.175,7.208-3.526,9.437c-2.352,2.231-5.757,3.347-10.217,3.347
			c-2.95,0-5.287-0.422-7.011-1.261v-5.687c2.252,1.311,4.523,1.966,6.818,1.966c2.281,0,4.047-0.601,5.301-1.805
			s1.882-2.841,1.882-4.906v-1.73h-0.086c-1.539,2.451-3.812,3.676-6.818,3.676c-2.793,0-5.009-0.984-6.647-2.95
			c-1.64-1.966-2.458-4.603-2.458-7.908c0-3.705,0.911-6.648,2.734-8.827c1.825-2.182,4.227-3.27,7.203-3.27
			c2.667,0,4.66,1.024,5.986,3.076h0.086v-2.544h6.753V48.498z M61.151,40.482v-1.729c0-1.384-0.408-2.563-1.229-3.537
			c-0.818-0.978-1.885-1.465-3.195-1.465c-1.496,0-2.671,0.585-3.527,1.753c-0.855,1.167-1.281,2.813-1.281,4.938
			c0,1.823,0.405,3.266,1.218,4.326c0.812,1.063,1.925,1.595,3.335,1.595c1.396,0,2.525-0.538,3.388-1.614
			C60.721,43.673,61.151,42.251,61.151,40.482z"/>
		<path fill="#1D1D1D" d="M94.476,50.999h-6.734V38.56c0-3.206-1.168-4.809-3.506-4.809c-1.196,0-2.165,0.449-2.906,1.347
			s-1.111,2.038-1.111,3.419v12.482h-6.754V18.596h6.754v13.766h0.086c1.653-2.521,3.898-3.782,6.732-3.782
			c4.959,0,7.439,2.99,7.439,8.977V50.999z"/>
		<path fill="#1D1D1D" d="M113.05,50.742c-0.998,0.528-2.501,0.792-4.51,0.792c-4.76,0-7.14-2.472-7.14-7.417V34.093h-3.549v-4.981
			h3.549v-4.723l6.731-1.923v6.646h4.918v4.981h-4.918v8.848c0,2.281,0.907,3.422,2.717,3.422c0.712,0,1.446-0.207,2.201-0.621
			V50.742z"/>
	</g>
	<g>
		<g>
			<polygon fill="#1D1D1D" points="121.678,50.999 121.803,50.999 121.803,24.261 121.392,24.261 			"/>
			<path fill="#1D1D1D" d="M125.803,23.952v0.309v26.738h2.756h29.744v-27.25L141.371,7.595L125.803,23.952z M152.956,40.335
				c-0.229,0.506-4.04,4.368-8.741,4.368c-7.153,0-12.953-5.8-12.953-12.953c0-4.701,4.212-9.148,4.515-8.757
				c0.303,0.393-0.768,3.423-0.768,5.876c0,7.154,5.779,12.37,12.934,12.37C150.395,41.239,153.185,39.829,152.956,40.335z"/>
			<polygon fill="#1D1D1D" points="193.606,17.999 174.74,0 139.565,2.921 119.794,24.296 120.073,24.261 119.986,24.261 
				139.887,3.206 142.151,2.979 163.804,23.261 162.303,23.563 162.303,49.814 190.797,40.019 190.797,18.582 190.811,18.582 
				190.797,18.568 			"/>
		</g>
	</g>
	<g>
		<path fill="#1D1D1D" d="M209.646,20.349v5.344h-2.564v19.965h2.564v5.342h-12.033v-5.342h2.564V25.692h-2.564v-5.344H209.646z"/>
		<path fill="#1D1D1D" d="M234.525,50.999h-6.731v-12.16c0-3.393-1.214-5.088-3.635-5.088c-1.168,0-2.132,0.449-2.887,1.347
			s-1.132,2.038-1.132,3.419v12.482h-6.754V29.111h6.754v3.463h0.084c1.612-2.664,3.955-3.995,7.034-3.995
			c4.845,0,7.267,3.006,7.267,9.02V50.999z"/>
	</g>
</g>
</svg>
